<svg width="49" height="25" viewBox="0 0 49 25" fill="none" xmlns="http://www.w3.org/2000/svg">
<path d="M0 11.365C0 5.26367 4.95117 0.3125 11.0525 0.3125C13.9852 0.3125 16.7959 1.47793 18.8678 3.5498L24.375 9.04941L29.8746 3.5498C31.9541 1.47793 34.7648 0.3125 37.6975 0.3125C43.7988 0.3125 48.75 5.26367 48.75 11.365V13.6273C48.75 19.7363 43.7988 24.6875 37.6975 24.6875C34.7648 24.6875 31.9541 23.5221 29.8822 21.4502L24.375 15.9506L18.8754 21.4502C16.7959 23.5221 13.9852 24.6875 11.0525 24.6875C4.95117 24.6875 0 19.7363 0 13.635V11.365ZM20.9244 12.5L15.4248 7.00039C14.267 5.84258 12.6902 5.1875 11.0525 5.1875C7.64004 5.1875 4.875 7.95254 4.875 11.365V13.6273C4.875 17.0398 7.64004 19.8049 11.0525 19.8049C12.6902 19.8049 14.267 19.1574 15.4248 17.992L20.9244 12.5ZM27.818 12.5L33.3176 17.9996C34.4754 19.1574 36.0521 19.8125 37.6898 19.8125C41.1023 19.8125 43.8674 17.0475 43.8674 13.635V11.365C43.8674 7.95254 41.1023 5.1875 37.6898 5.1875C36.0521 5.1875 34.4754 5.83496 33.3176 7.00039L27.8256 12.5H27.818Z" fill="#48BFF0"/>
</svg>
